<svg xmlns="http://www.w3.org/2000/svg" viewBox="0 0 77.38 150.53"><defs><style>.cls-1{fill:red;}.cls-2{fill:#fff;}</style></defs><title>Asset 2</title><g id="Layer_2" data-name="Layer 2"><g id="Layer_2-2" data-name="Layer 2"><rect class="cls-1" x="7.33" y="99.18" width="10.35" height="21.87" transform="translate(-48.13 202.88) rotate(-140.35)"/><path class="cls-1" d="M6.83,150.51l3.14-.29a3.6,3.6,0,0,0,3.25-3.92L10.5,117.22.32,119.38l2.59,27.88A3.61,3.61,0,0,0,6.83,150.51Z"/><rect class="cls-1" x="38.1" y="59.74" width="10.35" height="26.5" transform="translate(30.02 156.81) rotate(-140.35)"/><rect class="cls-1" x="19.01" y="32.44" width="10.35" height="47.9" transform="translate(55.37 109.23) rotate(172.67)"/><path class="cls-1" d="M39.3,59.17l3.86.36,1.53,3.52-2.34,3.07a18.77,18.77,0,0,0,3,3.33l3.33-2L52,69.42l-.08,3.87a19.17,19.17,0,0,0,4.35.95l1.54-3.55,3.81-.39,2.21,3.19a19.91,19.91,0,0,0,4.08-1.8L67,67.91l2.86-2.55,3.66,1.27a19.52,19.52,0,0,0,2.24-3.86l-2.9-2.55.81-3.75,3.7-1.12c0-.7,0-1.41-.09-2.13a17.23,17.23,0,0,0-.37-2.3l-3.85-.36-1.54-3.5L73.85,44a19.1,19.1,0,0,0-3-3.31l-3.32,2-3.32-1.92.07-3.87A19.13,19.13,0,0,0,60,35.9l-1.52,3.56-3.81.4L52.4,36.69a18.74,18.74,0,0,0-4,1.74l.83,3.78L46.4,44.75l-3.65-1.28a19.41,19.41,0,0,0-2.25,3.84l2.89,2.57-.82,3.74-3.7,1.11a20.31,20.31,0,0,0,.08,2.2C39,57.69,39.15,58.43,39.3,59.17ZM51,50.24a8.63,8.63,0,1,1,2.33,12A8.61,8.61,0,0,1,51,50.24Z"/><path class="cls-2" d="M51.07,65.55A12.64,12.64,0,1,0,47.65,48,12.62,12.62,0,0,0,51.07,65.55Zm-2.4-16.84a11.39,11.39,0,1,1,3.09,15.82A11.41,11.41,0,0,1,48.67,48.71Z"/><text/><path class="cls-2" d="M51.07,65.55a12.55,12.55,0,0,1-4.41-5.16c.78.54,1.56,1,2.35,1.52a11.35,11.35,0,0,0,10.52,4.47c.9.25,1.79.46,2.67.65A12.57,12.57,0,0,1,51.07,65.55Z"/><path class="cls-1" d="M64,39.9l0-3.13A13.45,13.45,0,0,0,60.61,36S63,36.53,64,39.9Z"/><path class="cls-1" d="M8.61,96.2l3.85.36L14,100.08l-2.34,3.07a18.77,18.77,0,0,0,3,3.33l3.33-2,3.31,1.93-.09,3.87a20,20,0,0,0,4.36,1l1.53-3.56,3.82-.38,2.21,3.18a19.3,19.3,0,0,0,4.07-1.8l-.84-3.78,2.86-2.55,3.65,1.27a19.28,19.28,0,0,0,2.25-3.86l-2.91-2.55L43,93.51l3.7-1.13c0-.7,0-1.41-.08-2.13a21.61,21.61,0,0,0-.37-2.3l-3.85-.36-1.55-3.5L43.16,81a18.8,18.8,0,0,0-3-3.32l-3.33,2-3.31-1.92.07-3.87a19.92,19.92,0,0,0-4.36-.94l-1.53,3.56-3.81.4L21.7,73.72a18.66,18.66,0,0,0-3.95,1.74l.83,3.78-2.87,2.54L12.06,80.5a19.41,19.41,0,0,0-2.25,3.84l2.89,2.57-.82,3.74-3.7,1.11A18.05,18.05,0,0,0,8.26,94,18.64,18.64,0,0,0,8.61,96.2Zm11.66-8.93a8.64,8.64,0,1,1,2.34,12A8.63,8.63,0,0,1,20.27,87.27Z"/><path class="cls-2" d="M20.37,102.58A12.64,12.64,0,1,0,17,85.05,12.63,12.63,0,0,0,20.37,102.58ZM18,85.74a11.39,11.39,0,1,1,3.08,15.82A11.4,11.4,0,0,1,18,85.74Z"/><path class="cls-1" d="M36.43,104.84l-.11.1.78,3.76.06,0a19.3,19.3,0,0,1-4.07,1.8l0-.07-2.23-3.11-3.82.38-1.58,3.49.05.07a20,20,0,0,1-4.36-1l.06,0,0-3.84L18,104.52l-3.34,1.9v.06a18.77,18.77,0,0,1-3-3.33h.06L14,100.08l-1.54-3.52-3.81-.42,0,.06A18.64,18.64,0,0,1,8.26,94a18.05,18.05,0,0,1-.08-2.2l.05,0,1-.33C17.68,100.81,28.25,104,36.43,104.84Z"/><path class="cls-2" d="M20.37,102.58A12.46,12.46,0,0,1,16,97.42c.77.54,1.56,1,2.35,1.53a11.34,11.34,0,0,0,10.51,4.46c.91.25,1.8.46,2.68.65A12.6,12.6,0,0,1,20.37,102.58Z"/><path class="cls-1" d="M33.31,76.93l0-3.12A13.28,13.28,0,0,0,29.91,73S32.27,73.57,33.31,76.93Z"/><path class="cls-1" d="M.43,23.26l3.86.37,1.53,3.52L3.48,30.22a19.54,19.54,0,0,0,3,3.33l3.33-2,3.31,1.94L13,37.39a19.17,19.17,0,0,0,4.35,1l1.54-3.55,3.81-.39,2.21,3.18A19.35,19.35,0,0,0,29,35.79L28.14,32,31,29.46l3.66,1.27a20.07,20.07,0,0,0,2.25-3.86L34,24.31l.81-3.74,3.7-1.12a19,19,0,0,0-.09-2.13,18.71,18.71,0,0,0-.36-2.3l-3.85-.36-1.55-3.51L35,8.07a19.54,19.54,0,0,0-3-3.32l-3.32,2L25.37,4.81,25.44.94A18.63,18.63,0,0,0,21.09,0L19.56,3.56,15.75,4,13.53.79a18.74,18.74,0,0,0-4,1.74l.83,3.78L7.54,8.85,3.89,7.57a19.17,19.17,0,0,0-2.26,3.84L4.53,14,3.7,17.72,0,18.83A17.91,17.91,0,0,0,.09,21,20.48,20.48,0,0,0,.43,23.26ZM12.1,14.34a8.63,8.63,0,1,1,2.33,12A8.6,8.6,0,0,1,12.1,14.34Z"/><path class="cls-2" d="M12.2,29.65A12.64,12.64,0,1,0,8.78,12.12,12.64,12.64,0,0,0,12.2,29.65ZM9.8,12.81a11.39,11.39,0,1,1,3.09,15.81A11.42,11.42,0,0,1,9.8,12.81Z"/><path class="cls-1" d="M28.26,31.91l-.12.1.78,3.75.07,0a19.35,19.35,0,0,1-4.08,1.79l0-.06L22.7,34.4l-3.81.39-1.58,3.49,0,.06a19.17,19.17,0,0,1-4.35-1l.06,0,0-3.83L9.77,31.58l-3.33,1.9v.07a19.54,19.54,0,0,1-3-3.33h.07l2.27-3.08L4.29,23.63.48,23.21l0,.05A20.48,20.48,0,0,1,.09,21,17.91,17.91,0,0,1,0,18.83l.05.05,1-.33C9.51,27.87,20.08,31,28.26,31.91Z"/><path class="cls-2" d="M12.2,29.65a12.61,12.61,0,0,1-4.41-5.16c.78.54,1.56,1.05,2.35,1.52a11.39,11.39,0,0,0,10.52,4.46c.9.25,1.79.47,2.67.65A12.6,12.6,0,0,1,12.2,29.65Z"/><path class="cls-1" d="M25.13,4l0-3.12A13.77,13.77,0,0,0,21.74.09S24.09.63,25.13,4Z"/><ellipse class="cls-1" cx="5.82" cy="118.61" rx="5.56" ry="5.41" transform="translate(-15.09 1.71) rotate(-7.33)"/></g></g></svg>